<?xml version="1.0" encoding="UTF-8"?>
<svg id="Layer_1" data-name="Layer 1" xmlns="http://www.w3.org/2000/svg" version="1.1" viewBox="0 0 841.89 329.97">
  <defs>
    <style>
      .cls-1 {
        fill: #0D4BA0;
        stroke-width: 0px;
      }
    </style>
  </defs>
  <path class="cls-1" d="M191.96,142.2c0-36.88-20.69-63.26-51.51-63.26s-51.51,26.38-51.51,63.26,20.69,63.26,51.51,63.26,51.51-26.38,51.51-63.26M68.02,142.2c0-44.04,29.47-79.36,72.43-79.36s72.43,35.32,72.43,79.36-29.46,79.36-72.43,79.36-72.43-35.32-72.43-79.36"/>
  <path class="cls-1" d="M285.98,172.6l-15.07-3.35c-21.59-4.69-34.64-14.31-34.64-31.97,0-18.55,17.77-31.96,41.84-31.96,25.65,0,43.64,14.75,45.21,35.32h-18.67c-1.57-12.97-10.8-20.57-26.54-20.57-13.05,0-23.62,5.14-23.62,15.42,0,9.17,6.75,12.29,23.62,16.1l15.07,3.35c21.59,4.92,32.39,15.87,32.39,33.98,0,19.23-15.75,32.64-44.99,32.64s-46.34-20.34-47.69-41.36h18.67c1.12,15.42,12.82,26.6,29.69,26.6,14.39,0,26.32-6.26,26.32-16.77,0-7.38-4.5-13.64-21.59-17.44"/>
  <path class="cls-1" d="M403.4,120.07c-21.59,0-33.29,18.55-33.29,43.37s11.7,43.36,33.29,43.36,33.74-18.55,33.74-43.36-12.14-43.37-33.74-43.37M409.02,221.55c-17.77,0-31.27-9.84-37.57-25.93h-.45v61.69h-18.67V107.55h18.67v23.7h.45c6.3-16.1,19.8-25.93,37.57-25.93,31.94,0,48.36,27.27,48.36,58.12s-16.42,58.12-48.36,58.12"/>
  <path class="cls-1" d="M503.72,219.32h-18.67v-111.77h18v21.9h.45c5.85-15.42,17.32-24.14,33.96-24.14v20.12h-4.05c-18.22,0-29.69,6.71-29.69,26.83v67.06Z"/>
  <path class="cls-1" d="M567.83,154.27h64.56c-1.57-20.12-12.37-34.2-32.16-34.2s-30.59,14.08-32.39,34.2M601.12,221.55c-33.52,0-52.19-27.05-52.19-58.12s17.77-58.12,51.29-58.12,53.76,26.15,50.61,63.71h-83c.9,23.25,14.39,37.78,35.09,37.78,19.57,0,25.42-13.64,27.89-22.8h18.67c-4.05,19.89-17.54,37.55-48.36,37.55"/>
  <polygon class="cls-1" points="719.88 257.32 700.54 257.32 718.31 208.14 699.86 208.14 662.98 107.55 682.32 107.55 718.76 206.8 754.52 107.55 773.87 107.55 719.88 257.32"/>
</svg>